<svg width="32" height="32" viewBox="0 0 32 32" fill="none" xmlns="http://www.w3.org/2000/svg">
<rect width="32" height="32" rx="8" fill="#1F51BE"/>
<path d="M10.7525 8.74177C10.9966 8.58524 11.3346 8.37731 11.7085 8.16064M10.7525 8.74177H9.85105L8.7038 9.73918L9.35937 11.54M10.7525 8.74177L11.49 10.0439L11.3261 10.8474M18.7012 7.05173C17.4994 6.99632 14.8989 6.91874 14.1123 7.05173C13.9051 7.08675 13.629 7.18531 13.3201 7.32078M18.7012 7.05173C18.8833 7.55967 19.3076 8.65866 19.548 8.99113C19.8485 9.40671 20.1216 10.2102 20.2036 10.3487M18.7012 7.05173L18.8924 5.9158L20.2036 5.33398L21.542 5.9158V7.60585L21.1869 7.91061C21.1004 7.97816 21.2048 7.80577 21.105 8.04914M20.2036 10.3487C20.2656 10.4535 20.7954 8.80391 21.105 8.04914M20.2036 10.3487L18.8105 9.24048L16.5433 8.24307L12.8557 9.85L12.7465 10.9305M13.3201 7.32078L13.047 6.13745L11.8997 5.74957L10.9983 6.33139V7.41191L11.7085 8.16064M13.3201 7.32078C12.8176 7.54121 12.2284 7.85938 11.7085 8.16064M9.35937 11.54L11.3261 10.8474M9.35937 11.54L7.25608 12.953M11.3261 10.8474C11.7449 10.8382 12.6154 10.8419 12.7465 10.9305M7.25608 12.953L9.74179 13.0574M7.25608 12.953L6.33038 13.0574M4.41528 19.2976L4.33334 15.4465C4.36976 15.4373 4.48084 15.38 4.63381 15.2249C4.78677 15.0697 4.73396 14.4768 4.68844 14.1998L5.78105 13.1193L6.33038 13.0574M4.41528 19.2976C4.69754 19.2884 5.29484 19.3032 5.42595 19.4361M4.41528 19.2976C5.3258 19.076 7.23423 18.6327 7.58387 18.6327C8.02092 18.6327 12.0363 19.6855 12.1729 19.6855C12.3094 19.6855 12.3641 19.6855 12.6372 19.3807C13.2655 19.076 13.7298 16.7764 14.6039 16.3885C15.478 16.0006 16.1609 17.1089 16.5433 17.7184C16.9257 18.3279 16.8165 19.2422 16.5433 19.1868C16.2702 19.1314 15.1776 19.076 14.3854 19.3253C13.5933 19.5747 12.4733 20.4336 12.2548 20.4336C12.0363 20.4336 7.85702 19.4361 7.52924 19.4361C7.26701 19.4361 5.79926 19.7871 5.09817 19.9626M5.42595 19.4361C5.55707 19.5691 5.26206 19.8425 5.09817 19.9626M5.42595 19.4361L7.58387 19.0483L12.2548 19.9626L13.8937 18.8266M5.09817 19.9626L6.87367 22.2344L10.9437 22.6223M10.9437 22.6223L11.1015 22.9548M10.9437 22.6223C13.8937 23.2651 16.7436 20.9692 17.7998 19.7409M19.7939 24.3123L22.4981 22.2067M19.7939 24.3123L18.7832 22.7885M19.7939 24.3123L17.0765 25.8639M22.4981 22.2067L24.9838 19.5804M22.4981 22.2067L21.3235 20.4613M23.181 10.0439L21.105 8.04914M23.181 10.0439L24.4304 12.2881M23.181 10.0439L21.7332 11.8448M13.3201 16.1392L12.6372 14.4491L11.2168 13.1193L9.74179 13.0574M13.3201 16.1392L13.2655 16.7764L12.965 17.7184M13.3201 16.1392C13.4585 15.9865 13.7394 15.77 13.9943 15.5851M9.74179 13.0574C9.414 13.4474 8.72019 14.3272 8.56722 14.7262C8.41426 15.1252 8.44886 15.2988 8.48528 15.3357M6.33038 13.0574C6.49326 13.5213 6.84089 14.5212 6.9283 14.8093C7.01571 15.0974 6.96472 15.2803 6.9283 15.3357M12.7465 10.9305C12.9009 10.992 13.1055 11.0707 13.3201 11.1486M13.3201 11.1486C13.8141 11.3279 14.3607 11.5033 14.4674 11.4569C14.5192 11.4344 14.6051 11.418 14.7132 11.3972M13.3201 11.1486C13.3565 11.1959 13.4458 11.3239 13.5113 11.4569C13.5933 11.6232 14.0576 11.5955 14.3581 11.8448C14.5985 12.0443 15.041 12.4266 15.2322 12.5929C15.4325 12.676 16.0899 12.8533 17.1169 12.8976C18.4008 12.953 19.0017 11.069 18.8378 10.8197C18.8271 10.8033 18.8095 10.7848 18.786 10.7643M14.7132 11.3972C15.0039 11.3412 15.4548 11.2537 15.8331 10.9305C16.2483 10.5759 16.7892 10.0624 17.0077 9.85C17.5175 10.0704 18.5231 10.5352 18.786 10.7643M14.7132 11.3972L15.2868 11.7894C15.3232 11.8356 15.6365 11.9445 16.598 12.011C17.5595 12.0775 17.7088 11.3184 17.6633 10.9305L17.9637 10.9028L18.786 10.7643M24.4304 12.2881L24.4921 12.3989L25.337 13.5348M24.4304 12.2881L22.9351 14.3383M22.9351 14.3383L20.6953 16.2777L20.6154 16.329M22.9351 14.3383L21.7332 11.8448M22.9351 14.3383L23.9185 16.9426M17.4174 18.3833C17.3901 18.1506 17.3136 17.6364 17.2262 17.4413C16.5706 15.8898 15.6146 15.3357 14.959 15.2249C14.6689 15.1759 14.3098 15.3562 13.9943 15.5851M17.4174 18.3833L20.6154 16.329M17.4174 18.3833L17.7998 19.7409M19.548 13.7288L20.6154 16.329M19.548 13.7288L21.7332 11.8448M19.548 13.7288L16.598 15.0587C16.1551 14.6985 15.0144 14.2995 13.9943 15.5851M20.6154 16.329L21.3235 20.4613M18.7832 22.7885L21.3235 20.4613M18.7832 22.7885L16.3794 24.2569M18.7832 22.7885C18.9143 22.7084 20.5314 21.2036 21.3235 20.4613M18.7832 22.7885L17.7998 19.7409M21.3235 20.4613L23.9185 16.9426M23.9185 16.9426L25.337 13.5348M23.9185 16.9426L24.9838 19.5804M25.337 13.5348L25.6667 13.9781V18.4942L25.1204 19.4361L24.9838 19.5804M16.3794 24.2569C16.5892 24.691 17.0222 25.62 17.0765 25.8639M16.3794 24.2569C16.2702 24.3013 14.5675 24.3862 13.7298 24.4232M17.0765 25.8639L15.6692 26.6673L13.7298 25.4362M13.7298 24.4232V25.4362M13.7298 24.4232L11.1015 22.9548M13.7298 25.4362L11.6539 24.1184L11.1015 22.9548M13.8937 18.8266L14.7132 16.7764L14.8673 17.2751M13.8937 18.8266L15.2868 18.6327M15.2868 18.6327L14.8673 17.2751M15.2868 18.6327C15.7056 18.5496 16.4668 18.2836 16.1609 17.8846C15.855 17.4857 15.171 17.312 14.8673 17.2751M8.86769 16.3331L9.0589 16.0561L10.452 15.6128L10.8344 14.8093H11.0529L10.7251 14.2275L9.71447 14.4768C9.53237 14.8093 9.14631 15.5019 9.0589 15.6128C8.97149 15.7236 8.60364 16.0468 8.43065 16.1946L8.86769 16.3331ZM6.2181 16.4716C6.2181 16.3793 6.20171 16.1724 6.13615 16.0838C6.0706 15.9951 5.45327 15.7328 5.1528 15.6128L5.26206 14.8647L4.93427 14.56C4.94338 14.4861 5.01076 14.3383 5.20743 14.3383C5.4041 14.3383 5.67179 14.4307 5.78105 14.4768L6.2181 15.6128L6.81904 16.1946L6.2181 16.4716ZM16.0243 11.3461C15.7854 11.5884 15.997 11.6232 16.1609 11.6786C16.3248 11.734 17.0623 11.8638 17.1989 11.3972C17.3355 10.9305 17.1989 10.5703 16.9531 10.5149C16.6435 10.7366 16.0243 11.2131 16.0243 11.3461Z" stroke="white" stroke-width="0.4"/>
</svg>
